<svg xmlns="http://www.w3.org/2000/svg" viewBox="0 0 200 200">
  <defs>
    <linearGradient id="logoGrad" x1="0%" y1="0%" x2="100%" y2="100%">
      <stop offset="0%" style="stop-color:#667eea"/>
      <stop offset="100%" style="stop-color:#764ba2"/>
    </linearGradient>
    <linearGradient id="logoGrad2" x1="0%" y1="0%" x2="100%" y2="100%">
      <stop offset="0%" style="stop-color:#f093fb"/>
      <stop offset="100%" style="stop-color:#f5576c"/>
    </linearGradient>
    <filter id="shadow">
      <feDropShadow dx="0" dy="4" stdDeviation="8" flood-opacity="0.3"/>
    </filter>
  </defs>
  
  <!-- Background -->
  <rect width="200" height="200" rx="40" fill="url(#logoGrad)" filter="url(#shadow)"/>
  
  <!-- Decorative dots -->
  <circle cx="30" cy="30" r="8" fill="white" opacity="0.2"/>
  <circle cx="170" cy="30" r="8" fill="white" opacity="0.2"/>
  <circle cx="30" cy="170" r="8" fill="white" opacity="0.2"/>
  <circle cx="170" cy="170" r="8" fill="white" opacity="0.2"/>
  
  <!-- Queue icon -->
  <g transform="translate(40, 40)">
    <!-- Three bars -->
    <rect x="0" y="0" width="120" height="18" rx="4" fill="white" opacity="0.9"/>
    <rect x="0" y="36" width="120" height="18" rx="4" fill="white" opacity="0.7"/>
    <rect x="0" y="72" width="120" height="18" rx="4" fill="white" opacity="0.5"/>
    
    <!-- Arrows -->
    <polygon points="130,9 145,9 145,0 160,18 145,36 145,27 130,27" fill="white" opacity="0.9"/>
    <polygon points="130,45 145,45 145,36 160,54 145,72 145,63 130,63" fill="white" opacity="0.7"/>
    <polygon points="130,81 145,81 145,72 160,90 145,108 145,99 130,99" fill="white" opacity="0.5"/>
  </g>
  
  <!-- JQ Text -->
  <text x="100" y="175" font-size="20" text-anchor="middle" fill="white" font-family="Arial, sans-serif" font-weight="bold" letter-spacing="2">JQ</text>
</svg>